<svg width="26" height="26" viewBox="0 0 26 26" fill="none" xmlns="http://www.w3.org/2000/svg">
<g clip-path="url(#clip0_125_46)">
<path d="M13 0C5.832 0 0 5.832 0 13C0 20.168 5.832 26 13 26C20.168 26 26 20.168 26 13C26 5.832 20.168 0 13 0ZM16.783 2.684L13.075 10.565L9.345 2.637C10.491 2.232 11.717 2 13 2C14.331 2 15.601 2.25 16.783 2.684ZM7.526 3.472L11.539 12H14.611L18.59 3.543C19.912 4.328 21.056 5.378 21.947 6.625L16.836 18.56L14.691 14H11.459L9.314 18.56L4.148 6.497C5.052 5.27 6.2 4.237 7.526 3.472ZM2 13C2 11.458 2.322 9.99 2.898 8.657L9.166 23.297C4.988 21.736 2 17.716 2 13ZM9.276 23.337L13.075 15.264L16.852 23.291C15.651 23.742 14.356 24 13 24C11.691 24 10.441 23.758 9.276 23.337ZM17.011 23.232L23.175 8.835C23.704 10.121 24 11.526 24 13C24 17.649 21.096 21.625 17.011 23.232Z" fill="#404040"/>
</g>
<defs>
<clipPath id="clip0_125_46">
<rect width="26" height="26" fill="white"/>
</clipPath>
</defs>
</svg>
