<svg width="32" height="32" viewBox="0 0 32 32" fill="none" xmlns="http://www.w3.org/2000/svg">
<path d="M16 3C8.832 3 3 8.832 3 16C3 23.168 8.832 29 16 29C23.168 29 29 23.168 29 16C29 8.832 23.168 3 16 3ZM19.783 5.684L16.075 13.565L12.345 5.637C13.491 5.232 14.717 5 16 5C17.331 5 18.601 5.25 19.783 5.684ZM10.526 6.472L14.539 15H17.611L21.59 6.543C22.912 7.328 24.056 8.378 24.947 9.625L19.836 21.56L17.691 17H14.459L12.314 21.56L7.148 9.497C8.052 8.27 9.2 7.237 10.526 6.472ZM5 16C5 14.458 5.322 12.99 5.898 11.657L12.166 26.297C7.988 24.736 5 20.716 5 16ZM12.276 26.337L16.075 18.264L19.852 26.291C18.651 26.742 17.356 27 16 27C14.691 27 13.441 26.758 12.276 26.337ZM20.011 26.232L26.175 11.835C26.704 13.121 27 14.526 27 16C27 20.649 24.096 24.625 20.011 26.232Z" fill="#404040"/>
</svg>
