<svg width="26" height="26" viewBox="0 0 26 26" fill="none" xmlns="http://www.w3.org/2000/svg">
<g clip-path="url(#clip0_125_40)">
<path d="M25.3902 8.9375H22.3499L21.5049 6.825C20.6365 4.65309 18.5642 3.25 16.2247 3.25H9.77545C7.43647 3.25 5.36358 4.65309 4.49471 6.825L3.64971 8.9375H0.609942C0.213341 8.9375 -0.0776359 9.31023 0.0188485 9.69465L0.323536 10.9134C0.391075 11.1846 0.634825 11.375 0.91463 11.375H1.93381C1.25182 11.9707 0.812559 12.8365 0.812559 13.8125V16.25C0.812559 17.0686 1.12537 17.8075 1.62506 18.3793V21.125C1.62506 22.0223 2.35275 22.75 3.25006 22.75H4.87506C5.77236 22.75 6.50006 22.0223 6.50006 21.125V19.5H19.5001V21.125C19.5001 22.0223 20.2278 22.75 21.1251 22.75H22.7501C23.6474 22.75 24.3751 22.0223 24.3751 21.125V18.3793C24.8747 17.808 25.1876 17.0691 25.1876 16.25V13.8125C25.1876 12.8365 24.7483 11.9707 24.0668 11.375H25.086C25.3658 11.375 25.6096 11.1846 25.6771 10.9134L25.9818 9.69465C26.0778 9.31023 25.7868 8.9375 25.3902 8.9375ZM7.51213 8.03207C7.88232 7.10684 8.77861 6.5 9.77545 6.5H16.2247C17.2215 6.5 18.1178 7.10684 18.488 8.03207L19.5001 10.5625H6.50006L7.51213 8.03207ZM4.87506 16.2398C3.90006 16.2398 3.25006 15.5919 3.25006 14.6199C3.25006 13.648 3.90006 13 4.87506 13C5.85006 13 7.31256 14.4579 7.31256 15.4299C7.31256 16.4018 5.85006 16.2398 4.87506 16.2398ZM21.1251 16.2398C20.1501 16.2398 18.6876 16.4018 18.6876 15.4299C18.6876 14.4579 20.1501 13 21.1251 13C22.1001 13 22.7501 13.648 22.7501 14.6199C22.7501 15.5919 22.1001 16.2398 21.1251 16.2398Z" fill="#404040"/>
</g>
<defs>
<clipPath id="clip0_125_40">
<rect width="26" height="26" fill="white"/>
</clipPath>
</defs>
</svg>
