<svg width="24" height="24" viewBox="0 0 24 24" fill="none" xmlns="http://www.w3.org/2000/svg">
<path d="M12.5 14.7541L7.7459 19.5082C7.44536 19.8087 7.06284 19.959 6.59836 19.959C6.13388 19.959 5.75137 19.8087 5.45082 19.5082C5.15027 19.2076 5 18.8251 5 18.3607C5 17.8962 5.15027 17.5137 5.45082 17.2131L10.2049 12.459L5.45082 7.7459C5.15027 7.44536 5 7.06284 5 6.59836C5 6.13388 5.15027 5.75137 5.45082 5.45082C5.75137 5.15027 6.13388 5 6.59836 5C7.06284 5 7.44536 5.15027 7.7459 5.45082L12.5 10.2049L17.2131 5.45082C17.5137 5.15027 17.8962 5 18.3607 5C18.8251 5 19.2076 5.15027 19.5082 5.45082C19.8361 5.77869 20 6.16831 20 6.61967C20 7.07104 19.8361 7.44645 19.5082 7.7459L14.7541 12.459L19.5082 17.2131C19.8087 17.5137 19.959 17.8962 19.959 18.3607C19.959 18.8251 19.8087 19.2076 19.5082 19.5082C19.1803 19.8361 18.7913 20 18.341 20C17.8907 20 17.5148 19.8361 17.2131 19.5082L12.5 14.7541Z" fill="#202020"/>
</svg>
