<svg width="20" height="20" viewBox="0 0 20 20" fill="none" xmlns="http://www.w3.org/2000/svg">
<path d="M18.7423 5.30944H18.4958L17.8694 3.72046C17.8099 3.56928 17.6754 3.4516 17.5058 3.40239L16.6988 3.16784C16.3976 3.08026 16.075 3.22899 15.9779 3.49984C15.8807 3.77075 16.0459 4.06124 16.3468 4.14863L16.8846 4.30497L17.2804 5.30941H17.1103C16.9978 5.30941 16.8956 5.36882 16.8492 5.46134L16.385 6.38915C16.3662 6.42676 16.3577 6.46797 16.3602 6.50915L16.5349 9.34366C16.5433 9.4802 16.6688 9.58706 16.8208 9.58706H16.9992V15.7318C16.9992 16.4175 16.5666 17.0136 15.9343 17.3116V13.4788C15.9343 13.1015 15.7831 12.7555 15.5327 12.4867V1.92049C15.5328 0.861536 14.5756 0 13.3989 0H3.53556C2.35893 0 1.40174 0.861536 1.40174 1.92049V12.4866C1.15127 12.7553 1 13.1013 1 13.4787V18.4538C1 19.3064 1.7707 20 2.71806 20H14.2163C15.0726 20 15.7842 19.4335 15.9133 18.6951C17.3621 18.3403 18.4309 17.1466 18.4309 15.7318V9.58712H18.7423C18.9004 9.58712 19.0287 9.47176 19.0287 9.32944V5.56719C19.0287 5.42487 18.9004 5.30944 18.7423 5.30944ZM8.4672 14.0523C7.12602 14.0523 6.03876 13.0737 6.03876 11.8667C6.03876 10.6596 8.4672 8.35016 8.4672 8.35016C8.4672 8.35016 10.8956 10.6597 10.8956 11.8667C10.8956 13.0737 9.80827 14.0523 8.4672 14.0523ZM13.2422 5.51458H3.69231V2.0615H13.2422V5.51458Z" fill="#404040"/>
</svg>
