<svg width="20" height="20" viewBox="0 0 20 20" fill="none" xmlns="http://www.w3.org/2000/svg">
<g clip-path="url(#clip0_125_83)">
<path d="M12.5 0H7.5V1.61328C6.91797 1.78516 6.36328 2.01953 5.83594 2.30078L4.69531 1.16016L1.16016 4.69531L2.30078 5.83594C2.01563 6.35937 1.78516 6.91797 1.61328 7.5H0V12.5H1.61328C1.78516 13.082 2.01953 13.6367 2.30078 14.1641L1.16016 15.3047L4.69531 18.8398L5.83594 17.6992C6.35937 17.9844 6.91797 18.2148 7.5 18.3867V20H12.5V18.3867C13.082 18.2148 13.6367 17.9805 14.1641 17.6992L15.3047 18.8398L18.8398 15.3047L17.6992 14.1641C17.9844 13.6406 18.2148 13.082 18.3867 12.5H20V7.5H18.3867C18.2148 6.91797 17.9805 6.36328 17.6992 5.83594L18.8398 4.69531L15.3047 1.16016L14.1641 2.30078C13.6406 2.01563 13.082 1.78516 12.5 1.61328V0ZM10 5C11.3261 5 12.5979 5.52678 13.5355 6.46447C14.4732 7.40215 15 8.67392 15 10C15 11.3261 14.4732 12.5979 13.5355 13.5355C12.5979 14.4732 11.3261 15 10 15C8.67392 15 7.40215 14.4732 6.46447 13.5355C5.52678 12.5979 5 11.3261 5 10C5 8.67392 5.52678 7.40215 6.46447 6.46447C7.40215 5.52678 8.67392 5 10 5ZM10 8.125C10.2486 8.125 10.4871 8.02623 10.6629 7.85041C10.8387 7.6746 10.9375 7.43614 10.9375 7.1875C10.9375 6.93886 10.8387 6.7004 10.6629 6.52459C10.4871 6.34877 10.2486 6.25 10 6.25C9.75136 6.25 9.5129 6.34877 9.33709 6.52459C9.16127 6.7004 9.0625 6.93886 9.0625 7.1875C9.0625 7.43614 9.16127 7.6746 9.33709 7.85041C9.5129 8.02623 9.75136 8.125 10 8.125ZM7.61328 8.23828C7.49607 8.20032 7.37252 8.18582 7.2497 8.19561C7.12688 8.20539 7.00719 8.23927 6.89747 8.29531C6.78774 8.35135 6.69013 8.42846 6.6102 8.52223C6.53028 8.61599 6.4696 8.72458 6.43164 8.8418C6.39368 8.95901 6.37918 9.08256 6.38896 9.20538C6.39875 9.32819 6.43263 9.44788 6.48867 9.55761C6.54471 9.66734 6.62182 9.76495 6.71558 9.84487C6.80935 9.9248 6.91794 9.98548 7.03516 10.0234C7.15237 10.0614 7.27592 10.0759 7.39873 10.0661C7.52155 10.0563 7.64124 10.0224 7.75097 9.96641C7.86069 9.91036 7.95831 9.83326 8.03823 9.73949C8.11816 9.64573 8.17884 9.53714 8.2168 9.41992C8.25476 9.30271 8.26926 9.17916 8.25947 9.05634C8.24969 8.93352 8.21581 8.81383 8.15977 8.70411C8.10372 8.59438 8.02662 8.49677 7.93285 8.41684C7.83909 8.33692 7.7305 8.27624 7.61328 8.23828ZM11.7813 9.41797C11.8192 9.53518 11.8799 9.64377 11.9598 9.73754C12.0397 9.83131 12.1374 9.90841 12.2471 9.96445C12.3568 10.0205 12.4765 10.0544 12.5993 10.0642C12.7221 10.0739 12.8457 10.0594 12.9629 10.0215C13.0801 9.98352 13.1887 9.92285 13.2825 9.84292C13.3762 9.76299 13.4533 9.66538 13.5094 9.55566C13.5654 9.44593 13.5993 9.32624 13.6091 9.20342C13.6189 9.0806 13.6044 8.95706 13.5664 8.83984C13.5284 8.72263 13.4678 8.61404 13.3878 8.52027C13.3079 8.42651 13.2103 8.3494 13.1006 8.29336C12.9909 8.23732 12.8712 8.20344 12.7483 8.19365C12.6255 8.18387 12.502 8.19837 12.3848 8.23633C12.2676 8.27429 12.159 8.33496 12.0652 8.41489C11.9714 8.49482 11.8943 8.59243 11.8383 8.70216C11.7822 8.81188 11.7484 8.93157 11.7386 9.05439C11.7288 9.17721 11.7433 9.30075 11.7813 9.41797ZM10.8945 12.8242C10.9647 12.929 11.0554 13.0185 11.161 13.0874C11.2666 13.1563 11.3851 13.2032 11.5092 13.2253C11.6334 13.2473 11.7607 13.2441 11.8836 13.2158C12.0065 13.1875 12.1224 13.1347 12.2244 13.0606C12.3265 12.9864 12.4125 12.8925 12.4773 12.7843C12.5422 12.6762 12.5845 12.556 12.6019 12.4311C12.6192 12.3062 12.6112 12.1791 12.5782 12.0573C12.5453 11.9356 12.4881 11.8218 12.4102 11.7227C12.3399 11.6179 12.2493 11.5284 12.1437 11.4595C12.0381 11.3906 11.9196 11.3437 11.7955 11.3216C11.6713 11.2995 11.544 11.3028 11.4211 11.3311C11.2982 11.3593 11.1823 11.4121 11.0802 11.4863C10.9782 11.5604 10.8922 11.6544 10.8274 11.7626C10.7625 11.8707 10.7202 11.9908 10.7028 12.1158C10.6855 12.2407 10.6935 12.3678 10.7265 12.4895C10.7594 12.6113 10.8166 12.7251 10.8945 12.8242ZM8.89844 11.5156C8.79931 11.4377 8.68548 11.3805 8.56375 11.3476C8.44201 11.3146 8.31489 11.3066 8.18998 11.3239C8.06506 11.3413 7.94493 11.3836 7.83677 11.4485C7.72862 11.5133 7.63465 11.5993 7.56051 11.7013C7.48637 11.8033 7.43357 11.9193 7.40527 12.0422C7.37698 12.1651 7.37377 12.2924 7.39583 12.4166C7.4179 12.5407 7.46479 12.6592 7.5337 12.7648C7.60261 12.8704 7.69212 12.961 7.79688 13.0313C7.896 13.1092 8.00983 13.1664 8.13157 13.1993C8.2533 13.2323 8.38043 13.2403 8.50534 13.223C8.63025 13.2056 8.75038 13.1633 8.85854 13.0984C8.9667 13.0336 9.06066 12.9476 9.1348 12.8455C9.20895 12.7435 9.26175 12.6276 9.29004 12.5047C9.31834 12.3818 9.32155 12.2545 9.29948 12.1303C9.27741 12.0061 9.23052 11.8877 9.16161 11.7821C9.0927 11.6765 9.00319 11.5858 8.89844 11.5156Z" fill="#404040"/>
</g>
<defs>
<clipPath id="clip0_125_83">
<rect width="20" height="20" fill="white"/>
</clipPath>
</defs>
</svg>
